# xmcd
#
# Track frame offsets: 
#        150
#        37912
#        76874
#        143615
#        152018
#
# Disc length: 2510 seconds
#
# Revision: 0
# Processed by: cddbd v1.5.2PL0 Copyright (c) Steve Scherf et al.
# Submitted via: ExactAudioCopy v0.99pb5
#
DISCID=2c09cc05
DTITLE=The Allman Brothers Band - 03-20-09 Beacon Theater (Disc3)
DYEAR=2009
DGENRE=Blues
TTITLE0=Why Does Love Got To Be So Sad
TTITLE1=Little Wing
TTITLE2=In Memory of Elizabeth Reed
TTITLE3=Crowd noise
TTITLE4=Layla
EXTD=
EXTT0=
EXTT1=
EXTT2=
EXTT3=
EXTT4=
PLAYORDER=
